<?xml version="1.0" encoding="UTF-8" standalone="no"?>
<!-- Created with Inkscape (http://www.inkscape.org/) -->

<svg
   width="48.607738mm"
   height="9.5165739mm"
   viewBox="0 0 48.607738 9.5165739"
   version="1.1"
   id="svg1"
   xmlns="http://www.w3.org/2000/svg"
   xmlns:svg="http://www.w3.org/2000/svg">
  <defs
     id="defs1" />
  <g
     id="layer1"
     transform="translate(-1.343117,-0.77995042)">
    <g
       id="text1"
       style="font-size:9.5261px;line-height:1;font-family:'Noto Sans';-inkscape-font-specification:'Noto Sans';text-align:center;letter-spacing:0.0595381px;text-anchor:middle;stroke-width:0.396921"
       aria-label="derucki.pl">
      <path
         style="font-weight:bold;font-family:'Reem Kufi';-inkscape-font-specification:'Reem Kufi Bold';fill:#333333"
         d="M 9.0433921,8.4103566 Q 8.4623,8.4103566 8.0050472,8.1436258 7.5477944,7.8673689 7.2810636,7.3529595 7.0238589,6.8385501 7.0238589,6.1336187 q 0,-0.7049315 0.285783,-1.2002887 0.285783,-0.4953572 0.7811402,-0.7525619 0.4953572,-0.2572047 1.1240798,-0.2572047 0.4000962,0 0.762088,0.1238393 0.3715181,0.1238393 0.6191961,0.381044 V 0.77995037 h 1.324128 V 8.2960434 H 10.58662 V 7.8578428 Q 10.281785,8.0959953 9.9007411,8.257939 9.5196971,8.4103566 9.0433921,8.4103566 Z M 9.4815927,7.2862768 q 0.4000962,0 0.6668273,-0.1524176 0.266731,-0.1619437 0.4382,-0.476305 V 5.6382615 Q 10.472307,5.3334262 10.176998,5.1524303 9.8816889,4.9714344 9.4815927,4.9714344 q -0.2953091,0 -0.5525138,0.1524176 Q 8.6814003,5.2667435 8.5289827,5.5239482 8.3765651,5.781153 8.3765651,6.1145665 q 0,0.3334135 0.1524176,0.6001443 0.1524176,0.2667308 0.4000962,0.4191484 0.2572047,0.1524176 0.5525138,0.1524176 z m 5.9180943,1.1240798 q -0.762088,0 -1.295549,-0.285783 -0.523936,-0.285783 -0.800193,-0.7906663 -0.276257,-0.5048833 -0.276257,-1.1621842 0,-0.6287226 0.323888,-1.133606 0.323887,-0.5048833 0.866875,-0.8001924 0.542988,-0.3048352 1.209815,-0.3048352 0.895453,0 1.467019,0.5239355 0.581092,0.5144094 0.752562,1.4955978 L 14.599495,6.924285 q 0.304835,0.3524657 0.828771,0.3524657 0.2191,0 0.419148,-0.076209 0.209574,-0.076209 0.409622,-0.2000481 L 16.847655,7.991208 Q 16.514241,8.18173 16.123671,8.2960432 15.742627,8.4103564 15.399687,8.4103566 Z M 14.34229,6.1812492 16.171301,5.5620527 Q 16.085567,5.3239001 15.895045,5.1524303 15.704523,4.9714344 15.323479,4.9714344 q -0.447727,0 -0.714458,0.3048352 -0.266731,0.3048353 -0.266731,0.8192447 0,0.038104 0,0.085735 z m 5.537041,-2.0481116 0.104787,0.95261 q 0.180996,-0.3619918 0.495357,-0.6191965 0.314361,-0.2667308 0.619197,-0.4000962 0.304835,-0.1428915 0.466779,-0.1428915 l -0.06668,1.333654 Q 21.031989,5.2000608 20.698575,5.409635 20.365162,5.6192093 20.184166,5.9621489 20.00317,6.3050885 20.00317,6.6670803 V 8.2960434 H 18.679042 V 4.1331376 Z m 4.10813,4.3629539 q -0.56204,0 -0.943084,-0.3429396 Q 22.663333,7.8006862 22.644281,7.2481724 V 4.1331376 h 1.333654 v 2.6196776 q 0.01905,0.2762569 0.142891,0.4477267 0.12384,0.1619437 0.419149,0.1619437 0.447726,0 0.704931,-0.4286745 0.257205,-0.4382006 0.257205,-1.1050276 V 4.1331376 h 1.333654 V 8.2960434 H 25.62595 l -0.09526,-0.666827 q -0.209574,0.3905701 -0.600144,0.6287226 -0.39057,0.2381525 -0.943084,0.2381525 z m 7.81378,-0.571566 q -0.276257,0.2191003 -0.695405,0.3524657 -0.409623,0.1333654 -0.809719,0.1333654 -1.066923,0 -1.714698,-0.5810921 -0.638249,-0.5810921 -0.638249,-1.619437 0,-0.6954054 0.314362,-1.1812365 0.314361,-0.4953572 0.819244,-0.7525619 0.51441,-0.2572047 1.07645,-0.2572047 0.56204,0 0.971662,0.1524176 0.419148,0.1524176 0.714457,0.4000962 l -0.647774,0.857349 Q 31.058205,5.3239001 30.820053,5.219113 30.591426,5.1047998 30.277065,5.1047998 q -0.409622,0 -0.704931,0.3143613 -0.29531,0.3048353 -0.29531,0.7906664 0,0.4667789 0.304836,0.7906663 0.314361,0.3238874 0.82877,0.3238874 0.438201,0 0.723984,-0.2381525 z m 1.088358,0.3715179 V 0.77995037 h 1.333654 V 5.4858438 l 1.981429,-1.4574933 0.809719,0.7144575 -1.476546,1.1145538 1.628963,2.4386816 H 35.614064 L 34.594771,6.5622932 34.223253,6.8385501 v 1.4574933 z m 5.260784,-4.1629058 h 1.333654 v 4.1629058 h -1.333654 z m -0.02858,-1.4765455 q 0,-0.2953091 0.228626,-0.4858311 0.238153,-0.190522 0.504884,-0.190522 0.266731,0 0.485831,0.190522 0.228626,0.190522 0.228626,0.4858311 0,0.2953091 -0.228626,0.4858311 -0.2191,0.1809959 -0.485831,0.1809959 -0.266731,0 -0.504884,-0.1809959 -0.228626,-0.190522 -0.228626,-0.4858311 z"
         id="path14" />
      <path
         style="font-weight:bold;font-family:'Reem Kufi';-inkscape-font-specification:'Reem Kufi Bold';fill:#2a7fff"
         d="m 40.372351,7.6101642 q 0,-0.2953091 0.209574,-0.4953572 0.219101,-0.2000481 0.476305,-0.2000481 0.238153,0 0.447727,0.2000481 0.2191,0.2000481 0.2191,0.4953572 0,0.3143613 -0.2191,0.5048833 -0.209574,0.1809959 -0.447727,0.1809959 -0.257204,0 -0.476305,-0.1809959 -0.209574,-0.190522 -0.209574,-0.5048833 z m 4.851176,0.8001924 q -0.352466,0 -0.704932,-0.1238393 Q 44.175656,8.1531519 43.937503,7.9149994 V 10.296524 H 42.613375 V 4.0378766 h 1.143132 l 0.114313,0.4953572 q 0.323888,-0.2572047 0.714458,-0.4286745 0.400096,-0.1809959 0.904979,-0.1809959 0.581092,0 1.038345,0.2762569 0.457253,0.2667308 0.714458,0.7811402 0.266731,0.5048833 0.266731,1.2193409 0,0.7049314 -0.29531,1.2002886 -0.295309,0.4953572 -0.809718,0.7525619 -0.514409,0.2572047 -1.181236,0.2572047 z m -0.266731,-1.047871 q 0.323887,0 0.590618,-0.1428915 0.276257,-0.1428915 0.438201,-0.4000962 0.171469,-0.2667308 0.171469,-0.6001443 0,-0.5334616 -0.323887,-0.847823 -0.323887,-0.3238874 -0.78114,-0.3238874 -0.400096,0 -0.666827,0.1619437 -0.266731,0.1524176 -0.438201,0.466779 v 1.0192927 q 0.104787,0.3048352 0.371518,0.4858311 0.276257,0.1809959 0.638249,0.1809959 z m 3.660405,-6.58253523 h 1.333654 V 8.2960434 h -1.333654 z"
         id="path15" />
    </g>
    <path
       d="m 4.2220299,4.8273097 q 0,-0.3859407 0.2738935,-0.6473844 0.2863431,-0.2614437 0.622485,-0.2614437 0.3112425,0 0.5851359,0.2614437 0.2863431,0.2614437 0.2863431,0.6473844 0,0.4108401 -0.2863431,0.6598341 -0.2738934,0.2365443 -0.5851359,0.2365443 -0.3361419,0 -0.622485,-0.2365443 Q 4.2220299,5.2381498 4.2220299,4.8273097 Z"
       id="text4-1"
       style="font-weight:bold;font-size:12.4497px;line-height:1;font-family:'Reem Kufi';-inkscape-font-specification:'Reem Kufi Bold';text-align:center;letter-spacing:0.077811px;text-anchor:middle;fill:#5599ff;stroke-width:0.518739"
       aria-label="." />
    <path
       d="m 4.2134865,7.3661862 q 0,-0.3859407 0.2738934,-0.6473844 0.2863431,-0.2614437 0.622485,-0.2614437 0.3112425,0 0.5851359,0.2614437 0.2863431,0.2614437 0.2863431,0.6473844 0,0.4108401 -0.2863431,0.6598342 -0.2738934,0.2365443 -0.5851359,0.2365443 -0.3361419,0 -0.622485,-0.2365443 Q 4.2134865,7.7770263 4.2134865,7.3661862 Z"
       id="text4-1-4"
       style="font-weight:bold;font-size:12.4497px;line-height:1;font-family:'Reem Kufi';-inkscape-font-specification:'Reem Kufi Bold';text-align:center;letter-spacing:0.077811px;text-anchor:middle;fill:#aaccff;stroke-width:0.518739"
       aria-label="." />
    <path
       d="m 1.3516608,4.8319417 q 0,-0.3859407 0.2738934,-0.6473844 0.2863431,-0.2614437 0.622485,-0.2614437 0.3112425,0 0.5851359,0.2614437 0.2863431,0.2614437 0.2863431,0.6473844 0,0.4108401 -0.2863431,0.6598341 -0.2738934,0.2365443 -0.5851359,0.2365443 -0.3361419,0 -0.622485,-0.2365443 Q 1.3516608,5.2427818 1.3516608,4.8319417 Z"
       id="text4-1-9"
       style="font-weight:bold;font-size:12.4497px;line-height:1;font-family:'Reem Kufi';-inkscape-font-specification:'Reem Kufi Bold';text-align:center;letter-spacing:0.077811px;text-anchor:middle;fill:#0066ff;stroke-width:0.518739"
       aria-label="." />
    <path
       d="m 1.343117,7.3708182 q 0,-0.3859407 0.2738934,-0.6473844 0.2863431,-0.2614437 0.622485,-0.2614437 0.3112426,0 0.585136,0.2614437 0.2863431,0.2614437 0.2863431,0.6473844 0,0.4108401 -0.2863431,0.6598341 -0.2738934,0.2365444 -0.585136,0.2365444 -0.3361419,0 -0.622485,-0.2365444 Q 1.343117,7.7816583 1.343117,7.3708182 Z"
       id="text4-1-4-2"
       style="font-weight:bold;font-size:12.4497px;line-height:1;font-family:'Reem Kufi';-inkscape-font-specification:'Reem Kufi Bold';text-align:center;letter-spacing:0.077811px;text-anchor:middle;fill:#5599ff;stroke-width:0.518739"
       aria-label="." />
  </g>
</svg>
