<?xml version="1.0" encoding="UTF-8" standalone="no"?>
<!-- Created with Inkscape (http://www.inkscape.org/) -->

<svg
   width="60.939476mm"
   height="11.93092mm"
   viewBox="0 0 60.939476 11.93092"
   version="1.1"
   id="svg1"
   inkscape:export-filename="logo-white.svg"
   inkscape:export-xdpi="96"
   inkscape:export-ydpi="96"
   sodipodi:docname="logo-white.svg"
   inkscape:version="1.3.2 (091e20e, 2023-11-25, custom)"
   xmlns:inkscape="http://www.inkscape.org/namespaces/inkscape"
   xmlns:sodipodi="http://sodipodi.sourceforge.net/DTD/sodipodi-0.dtd"
   xmlns="http://www.w3.org/2000/svg"
   xmlns:svg="http://www.w3.org/2000/svg">
  <sodipodi:namedview
     id="namedview1"
     pagecolor="#ffffff"
     bordercolor="#000000"
     borderopacity="0.25"
     inkscape:showpageshadow="2"
     inkscape:pageopacity="0.0"
     inkscape:pagecheckerboard="0"
     inkscape:deskcolor="#d1d1d1"
     inkscape:document-units="mm"
     inkscape:zoom="2.197205"
     inkscape:cx="59.39364"
     inkscape:cy="-19.342756"
     inkscape:window-width="1920"
     inkscape:window-height="1001"
     inkscape:window-x="2391"
     inkscape:window-y="-9"
     inkscape:window-maximized="1"
     inkscape:current-layer="layer1"
     showguides="true">
    <sodipodi:guide
       position="31.2902,291.09675"
       orientation="0,-1"
       id="guide4"
       inkscape:locked="false" />
    <sodipodi:guide
       position="33.397517,297.05745"
       orientation="0,-1"
       id="guide5"
       inkscape:locked="false" />
    <sodipodi:guide
       position="9.6751444,301.15167"
       orientation="1,0"
       id="guide6"
       inkscape:locked="false" />
    <sodipodi:guide
       position="8.8021134,296.27473"
       orientation="1,0"
       id="guide7"
       inkscape:locked="false" />
    <sodipodi:guide
       position="7.9061394,290.07401"
       orientation="1,0"
       id="guide8"
       inkscape:locked="false" />
    <sodipodi:guide
       position="7.0120801,291.89407"
       orientation="1,0"
       id="guide9"
       inkscape:locked="false" />
    <sodipodi:guide
       position="6.0967339,292.73491"
       orientation="1,0"
       id="guide10"
       inkscape:locked="false" />
    <sodipodi:guide
       position="10.843761,294.52303"
       orientation="0,-1"
       id="guide11"
       inkscape:locked="false" />
    <sodipodi:guide
       position="5.1920313,294.41659"
       orientation="1,0"
       id="guide12"
       inkscape:locked="false" />
    <sodipodi:guide
       position="6.554407,294.57625"
       orientation="1,0"
       id="guide13"
       inkscape:locked="false" />
    <sodipodi:guide
       position="7.4271789,294.71461"
       orientation="1,0"
       id="guide14"
       inkscape:locked="false" />
  </sodipodi:namedview>
  <defs
     id="defs1" />
  <g
     inkscape:label="Warstwa 1"
     inkscape:groupmode="layer"
     id="layer1"
     transform="translate(-1.3431146,-0.77995036)">
    <g
       id="text1"
       style="font-size:9.5261px;line-height:1;font-family:'Noto Sans';-inkscape-font-specification:'Noto Sans';text-align:center;letter-spacing:0.0595381px;text-anchor:middle;stroke-width:0.396921"
       aria-label="derucki.pl"
       transform="matrix(1.2536991,0,0,1.2536991,-0.3407483,-0.19787272)">
      <path
         style="font-weight:bold;font-family:'Reem Kufi';-inkscape-font-specification:'Reem Kufi Bold';fill:#ffffff"
         d="M 9.0433921,8.4103566 Q 8.4623,8.4103566 8.0050472,8.1436258 7.5477944,7.8673689 7.2810636,7.3529595 7.0238589,6.8385501 7.0238589,6.1336187 q 0,-0.7049315 0.285783,-1.2002887 0.285783,-0.4953572 0.7811402,-0.7525619 0.4953572,-0.2572047 1.1240798,-0.2572047 0.4000962,0 0.762088,0.1238393 0.3715181,0.1238393 0.6191961,0.381044 V 0.77995037 h 1.324128 V 8.2960434 H 10.58662 V 7.8578428 Q 10.281785,8.0959953 9.9007411,8.257939 9.5196971,8.4103566 9.0433921,8.4103566 Z M 9.4815927,7.2862768 q 0.4000962,0 0.6668273,-0.1524176 0.266731,-0.1619437 0.4382,-0.476305 V 5.6382615 Q 10.472307,5.3334262 10.176998,5.1524303 9.8816889,4.9714344 9.4815927,4.9714344 q -0.2953091,0 -0.5525138,0.1524176 Q 8.6814003,5.2667435 8.5289827,5.5239482 8.3765651,5.781153 8.3765651,6.1145665 q 0,0.3334135 0.1524176,0.6001443 0.1524176,0.2667308 0.4000962,0.4191484 0.2572047,0.1524176 0.5525138,0.1524176 z m 5.9180943,1.1240798 q -0.762088,0 -1.295549,-0.285783 -0.523936,-0.285783 -0.800193,-0.7906663 -0.276257,-0.5048833 -0.276257,-1.1621842 0,-0.6287226 0.323888,-1.133606 0.323887,-0.5048833 0.866875,-0.8001924 0.542988,-0.3048352 1.209815,-0.3048352 0.895453,0 1.467019,0.5239355 0.581092,0.5144094 0.752562,1.4955978 L 14.599495,6.924285 q 0.304835,0.3524657 0.828771,0.3524657 0.2191,0 0.419148,-0.076209 0.209574,-0.076209 0.409622,-0.2000481 L 16.847655,7.991208 Q 16.514241,8.18173 16.123671,8.2960432 15.742627,8.4103564 15.399687,8.4103566 Z M 14.34229,6.1812492 16.171301,5.5620527 Q 16.085567,5.3239001 15.895045,5.1524303 15.704523,4.9714344 15.323479,4.9714344 q -0.447727,0 -0.714458,0.3048352 -0.266731,0.3048353 -0.266731,0.8192447 0,0.038104 0,0.085735 z m 5.537041,-2.0481116 0.104787,0.95261 q 0.180996,-0.3619918 0.495357,-0.6191965 0.314361,-0.2667308 0.619197,-0.4000962 0.304835,-0.1428915 0.466779,-0.1428915 l -0.06668,1.333654 Q 21.031989,5.2000608 20.698575,5.409635 20.365162,5.6192093 20.184166,5.9621489 20.00317,6.3050885 20.00317,6.6670803 V 8.2960434 H 18.679042 V 4.1331376 Z m 4.10813,4.3629539 q -0.56204,0 -0.943084,-0.3429396 Q 22.663333,7.8006862 22.644281,7.2481724 V 4.1331376 h 1.333654 v 2.6196776 q 0.01905,0.2762569 0.142891,0.4477267 0.12384,0.1619437 0.419149,0.1619437 0.447726,0 0.704931,-0.4286745 0.257205,-0.4382006 0.257205,-1.1050276 V 4.1331376 h 1.333654 V 8.2960434 H 25.62595 l -0.09526,-0.666827 q -0.209574,0.3905701 -0.600144,0.6287226 -0.39057,0.2381525 -0.943084,0.2381525 z m 7.81378,-0.571566 q -0.276257,0.2191003 -0.695405,0.3524657 -0.409623,0.1333654 -0.809719,0.1333654 -1.066923,0 -1.714698,-0.5810921 -0.638249,-0.5810921 -0.638249,-1.619437 0,-0.6954054 0.314362,-1.1812365 0.314361,-0.4953572 0.819244,-0.7525619 0.51441,-0.2572047 1.07645,-0.2572047 0.56204,0 0.971662,0.1524176 0.419148,0.1524176 0.714457,0.4000962 l -0.647774,0.857349 Q 31.058205,5.3239001 30.820053,5.219113 30.591426,5.1047998 30.277065,5.1047998 q -0.409622,0 -0.704931,0.3143613 -0.29531,0.3048353 -0.29531,0.7906664 0,0.4667789 0.304836,0.7906663 0.314361,0.3238874 0.82877,0.3238874 0.438201,0 0.723984,-0.2381525 z m 1.088358,0.3715179 V 0.77995037 h 1.333654 V 5.4858438 l 1.981429,-1.4574933 0.809719,0.7144575 -1.476546,1.1145538 1.628963,2.4386816 H 35.614064 L 34.594771,6.5622932 34.223253,6.8385501 v 1.4574933 z m 5.260784,-4.1629058 h 1.333654 v 4.1629058 h -1.333654 z m -0.02858,-1.4765455 q 0,-0.2953091 0.228626,-0.4858311 0.238153,-0.190522 0.504884,-0.190522 0.266731,0 0.485831,0.190522 0.228626,0.190522 0.228626,0.4858311 0,0.2953091 -0.228626,0.4858311 -0.2191,0.1809959 -0.485831,0.1809959 -0.266731,0 -0.504884,-0.1809959 -0.228626,-0.190522 -0.228626,-0.4858311 z"
         id="path3" />
      <path
         style="font-weight:bold;font-family:'Reem Kufi';-inkscape-font-specification:'Reem Kufi Bold';fill:#2a7fff"
         d="m 40.372351,7.6101642 q 0,-0.2953091 0.209574,-0.4953572 0.219101,-0.2000481 0.476305,-0.2000481 0.238153,0 0.447727,0.2000481 0.2191,0.2000481 0.2191,0.4953572 0,0.3143613 -0.2191,0.5048833 -0.209574,0.1809959 -0.447727,0.1809959 -0.257204,0 -0.476305,-0.1809959 -0.209574,-0.190522 -0.209574,-0.5048833 z m 4.851176,0.8001924 q -0.352466,0 -0.704932,-0.1238393 Q 44.175656,8.1531519 43.937503,7.9149994 V 10.296524 H 42.613375 V 4.0378766 h 1.143132 l 0.114313,0.4953572 q 0.323888,-0.2572047 0.714458,-0.4286745 0.400096,-0.1809959 0.904979,-0.1809959 0.581092,0 1.038345,0.2762569 0.457253,0.2667308 0.714458,0.7811402 0.266731,0.5048833 0.266731,1.2193409 0,0.7049314 -0.29531,1.2002886 -0.295309,0.4953572 -0.809718,0.7525619 -0.514409,0.2572047 -1.181236,0.2572047 z m -0.266731,-1.047871 q 0.323887,0 0.590618,-0.1428915 0.276257,-0.1428915 0.438201,-0.4000962 0.171469,-0.2667308 0.171469,-0.6001443 0,-0.5334616 -0.323887,-0.847823 -0.323887,-0.3238874 -0.78114,-0.3238874 -0.400096,0 -0.666827,0.1619437 -0.266731,0.1524176 -0.438201,0.466779 v 1.0192927 q 0.104787,0.3048352 0.371518,0.4858311 0.276257,0.1809959 0.638249,0.1809959 z m 3.660405,-6.58253523 h 1.333654 V 8.2960434 h -1.333654 z"
         id="path4" />
    </g>
    <text
       xml:space="preserve"
       style="font-style:normal;font-variant:normal;font-weight:bold;font-stretch:normal;font-size:15.6082px;line-height:1;font-family:'Reem Kufi';-inkscape-font-specification:'Reem Kufi Bold';text-align:center;letter-spacing:0.0975514px;text-anchor:middle;fill:#5599ff;stroke-width:0.650343"
       x="6.0605946"
       y="6.97791"
       id="text4-1"><tspan
         sodipodi:role="line"
         id="tspan4-5"
         style="fill:#5599ff;stroke-width:0.650343"
         x="6.1093702"
         y="6.97791">.</tspan></text>
    <text
       xml:space="preserve"
       style="font-style:normal;font-variant:normal;font-weight:bold;font-stretch:normal;font-size:15.6082px;line-height:1;font-family:'Reem Kufi';-inkscape-font-specification:'Reem Kufi Bold';text-align:center;letter-spacing:0.0975514px;text-anchor:middle;fill:#aaccff;stroke-width:0.650343"
       x="6.0498834"
       y="10.160898"
       id="text4-1-4"><tspan
         sodipodi:role="line"
         id="tspan4-5-0"
         style="fill:#aaccff;stroke-width:0.650343"
         x="6.098659"
         y="10.160898">.</tspan></text>
    <text
       xml:space="preserve"
       style="font-style:normal;font-variant:normal;font-weight:bold;font-stretch:normal;font-size:15.6082px;line-height:1;font-family:'Reem Kufi';-inkscape-font-specification:'Reem Kufi Bold';text-align:center;letter-spacing:0.0975514px;text-anchor:middle;fill:#0066ff;stroke-width:0.650343"
       x="2.4620152"
       y="6.983717"
       id="text4-1-9"><tspan
         sodipodi:role="line"
         id="tspan4-5-6"
         style="fill:#0066ff;stroke-width:0.650343"
         x="2.5107908"
         y="6.983717">.</tspan></text>
    <text
       xml:space="preserve"
       style="font-style:normal;font-variant:normal;font-weight:bold;font-stretch:normal;font-size:15.6082px;line-height:1;font-family:'Reem Kufi';-inkscape-font-specification:'Reem Kufi Bold';text-align:center;letter-spacing:0.0975514px;text-anchor:middle;fill:#5599ff;stroke-width:0.650343"
       x="2.4513037"
       y="10.166704"
       id="text4-1-4-2"><tspan
         sodipodi:role="line"
         id="tspan4-5-0-9"
         style="fill:#5599ff;stroke-width:0.650343"
         x="2.5000794"
         y="10.166704">.</tspan></text>
  </g>
</svg>
